<svg width="80" height="28" viewBox="0 0 80 28" fill="none" xmlns="http://www.w3.org/2000/svg">
<path fill-rule="evenodd" clip-rule="evenodd" d="M66.0151 2.00523e-05C62.8669 -0.00506768 59.81 1.05813 57.3431 3.01609C54.8764 1.058 51.8194 -0.00521169 48.6712 2.00523e-05C45.5233 -0.00485663 42.4665 1.05832 39.9998 3.01609C37.5332 1.0579 34.4764 -0.00532466 31.3283 2.00523e-05C28.1803 -0.00485663 25.1236 1.05832 22.6569 3.01609C20.1901 1.05826 17.1334 -0.00492861 13.9854 2.00523e-05C6.26029 2.00523e-05 0 6.26638 0 14C0 21.7327 6.25984 28 13.9854 28C17.1334 28.0048 20.1901 26.9416 22.6569 24.9839C25.1236 26.9417 28.1803 28.0049 31.3283 28C34.4764 28.0053 37.5332 26.942 39.9998 24.9839C42.4665 26.9417 45.5233 28.0049 48.6712 28C51.8194 28.0052 54.8764 26.942 57.3431 24.9839C59.8099 26.942 62.8669 28.0052 66.0151 28C73.7402 28 80 21.7332 80 14C80 6.26684 73.7402 2.00523e-05 66.0151 2.00523e-05ZM20.3686 22.6969C18.5865 23.9983 16.3602 24.7925 13.9854 24.7925C8.02599 24.7925 3.20366 19.9656 3.20366 14C3.20366 8.03438 8.02599 3.20702 13.9854 3.20702C16.3602 3.20702 18.5851 4.00171 20.3686 5.30355C18.4036 7.77475 17.3368 10.8415 17.3434 14C17.3448 17.1572 18.4108 20.2216 20.3686 22.6969ZM22.6573 20.4126C21.2829 18.5581 20.543 16.3091 20.5475 14C20.5417 11.6907 21.2818 9.44129 22.6573 7.58737C24.0326 9.44143 24.7726 11.6907 24.7671 14C24.7715 16.3091 24.0316 18.558 22.6573 20.4126ZM37.712 22.6969C35.8604 24.0614 33.6202 24.7949 31.321 24.7893C29.0266 24.794 26.7914 24.0605 24.9451 22.6969C26.9031 20.2219 27.9691 17.1576 27.9703 14.0005C27.9769 10.842 26.9101 7.77521 24.9451 5.30401C26.7913 3.94005 29.0265 3.20632 31.321 3.21112C33.7131 3.21112 35.9231 3.98576 37.712 5.30401C35.747 7.77521 34.6802 10.842 34.6867 14.0005C34.6881 17.1576 35.754 20.2218 37.712 22.6969ZM39.9998 20.4126C38.6254 18.5581 37.8855 16.3091 37.8899 14C37.8844 11.6907 38.6244 9.4414 39.9998 7.58737C41.3754 9.44128 42.1156 11.6906 42.1101 14C42.1144 16.3092 41.3744 18.5582 39.9998 20.4126ZM55.0549 22.6969C53.266 24.0156 51.056 24.7893 48.6644 24.7893C46.2728 24.7893 44.077 24.0142 42.288 22.6969C44.2462 20.222 45.3122 17.1576 45.3133 14.0005C45.3198 10.842 44.253 7.77521 42.288 5.30401C44.077 3.98621 46.2728 3.21112 48.6644 3.21112C51.056 3.21112 53.266 3.98576 55.0549 5.30401C53.0902 7.77533 52.0233 10.842 52.0297 14.0005C52.0312 17.1575 53.0972 20.2217 55.0549 22.6969ZM57.3436 20.4126C55.9692 18.5581 55.2293 16.3091 55.2338 14C55.2278 11.6906 55.9679 9.4412 57.3436 7.58737C58.7189 9.44143 59.4589 11.6907 59.4534 14C59.4576 16.3091 58.7177 18.5579 57.3436 20.4126ZM66.0151 24.7925C63.6394 24.7925 61.4135 23.9983 59.6319 22.6969C61.5897 20.2218 62.6556 17.1576 62.6571 14.0005C62.6634 10.842 61.5966 7.77533 59.6319 5.30401C61.4153 4.00262 63.6399 3.20748 66.0151 3.20748C71.9736 3.20748 76.7968 8.03484 76.7968 14.0005C76.7968 19.9652 71.9736 24.7925 66.0151 24.7925Z" fill="white"/>
</svg>
